<svg fill="none" height="42" viewBox="0 0 166 42" width="166" xmlns="http://www.w3.org/2000/svg"><g fill="#000"><path d="m23.5583 30.1383 3.5418-6.5763-.199-.2421c-3.6213 5.7291-9.0732 7.706-18.1861 7.7867v-13.2737h1.27342c4.81518 0 6.16818 1.8559 6.96408 5.608h.3183c-.3183-1.6542-.5969-3.7521-.5969-5.8098 0-2.098.2786-4.1556.5969-5.8098h-.3183c-.7959 3.7522-2.1489 5.6081-6.96408 5.6081h-1.27342v-13.1124c7.7201 0 13.0128 1.61384 16.2362 7.2219l.1989-.2017-2.9448-5.93086.5174-1.65418s-8.4365.16138-15.83825.16138c-2.1887 0-5.7702-.08069-6.88445-.12103v.36311c4.65596.20173 4.85493 1.08934 4.85493 1.81556v23.48122c0 .7263-.19897 1.6139-4.85493 1.8156v.3631c1.11425-.0403 4.69575-.121 6.88445-.121 7.79975 0 17.11165.121 17.11165.121z"/><path d="m44.9933 28.6052v-16.3401c-1.6316.3228-4.6958.6052-6.6855.6456v.2824c2.6662.1614 3.104.7262 3.104 2.0173v8.4726c0 1.0893 0 1.6945-.199 2.4207-.6367 2.0577-2.3081 3.3487-4.3376 3.3487-2.4672 0-3.6611-1.6945-3.6611-5.0028v-12.1845c-1.6316.3228-4.3376.6052-6.3671.6456v.2824c2.507.1614 2.7856.7262 2.7856 2.0173v10.732c0 3.8732 2.1091 6.0922 5.0141 6.0922 3.5417 0 5.8896-3.2277 6.7253-5.5677l-.0398 5.5677c1.6714-.4842 3.9397-.8473 6.4467-.8473v-.2421c-2.507-.3227-2.7856-1.0086-2.7856-2.34z"/><path d="m55.4496 0h-.1592c-.955 1.37176-4.0988 2.94525-6.8844 3.3487v.16139c2.7458.36311 3.3029.92795 3.3029 1.4121v25.33721c0 .4438-.4377.7262-2.9846 1.049v.3227c1.1143-.0807 3.3826-.1614 4.7754-.1614 1.4326 0 3.7009.0807 4.7753.1614v-.3227c-2.507-.3228-2.9846-.6052-2.9846-1.049v-23.36026c0-3.06629.0398-5.20462.1592-6.89914z"/><path d="m62.4544 20.5764c0-.4035 0-.8069.0398-1.1701h13.1322c.0795-3.9538-2.7459-7.2219-7.2426-7.2219-5.3325 0-9.2722 5.1643-9.2722 10.4093 0 5.4063 3.8601 9.4409 9.0334 9.4409 4.4968 0 7.4018-3.147 8.3966-6.8185l-.1989-.121c-1.0745 2.5821-3.1438 4.3977-6.3274 4.3977-4.1784 0-7.5609-3.3084-7.5609-8.9164zm5.4916-7.9482c2.5867 0 3.7407 2.1384 3.7407 4.6398 0 1.0087-.4775 1.6138-1.154 1.6138l-7.9987.2018c.4377-3.7522 2.507-6.4554 5.412-6.4554z"/><path d="m84.1648 17.389c0-.4438.1194-5.1642.1592-5.4466h-.1592c-.9949 1.3717-3.8601 2.8242-6.5661 3.1873v.1614c2.507.3631 2.9846.9683 2.9846 1.4524v13.5159c0 .4438-.4378.7262-2.9846 1.049v.3227c1.1142-.0807 3.3825-.1614 4.7753-.1614 1.4326 0 4.5764.0807 5.6508.1614v-.3227c-3.3825-.3632-3.86-.6052-3.86-1.2104v-11.4582c.2387-2.3804 2.4672-5.366 4.2182-5.366.199 0 .2785.0403.2785.1614 0 .3227-1.0346.7262-1.0346 2.0576 0 1.4524 1.1142 2.219 2.3081 2.219 1.5122 0 2.4672-1.2104 2.4672-2.6225 0-1.5734-1.0744-2.9049-3.0641-2.9049-2.1887 0-4.3376 2.5015-5.1733 5.2046z"/><path d="m99.3125 16.9452.1194-5.0028h-.1592c-.9551 1.3717-3.8601 2.8242-6.5263 3.1873v.1614c2.4672.3631 2.9846.9683 2.9846 1.4524v23.8847c0 .4842-.4776.7666-2.9846 1.049v.3228c1.0744-.0807 3.3427-.1614 4.7753-.1614s4.3773.0807 5.4523.1614v-.3631c-3.1442-.3228-3.6615-.5245-3.6615-1.0087v-9.4409c.8755.4842 2.1885.8473 3.7005.8473 5.89 0 10.427-5.0029 10.427-11.0951 0-5.2046-3.264-8.7551-7.442-8.7551-3.064 0-5.85 2.3804-6.6855 4.7608zm0 2.2191c0-1.5735.0796-2.0173.3581-2.4611.7564-1.2911 1.9104-2.0577 3.4624-2.0577 4.138 0 7.043 3.7522 7.043 8.8761 0 4.3977-2.546 7.9078-5.65 7.9078-2.905 0-2.786-3.3084-5.2135-3.9136z"/><path d="m134.4 22.1095c0-5.4063-4.537-9.9251-9.392-9.9251s-9.391 4.5188-9.391 9.9251c0 5.4064 4.536 9.9251 9.391 9.9251s9.392-4.5187 9.392-9.9251zm-14.804 0c0-5.5677 1.751-9.5216 5.412-9.5216 3.701 0 5.412 3.9539 5.412 9.5216s-1.711 9.5216-5.412 9.5216c-3.661 0-5.412-3.9539-5.412-9.5216z"/><path d="m155.346 22.1095c0-5.4063-4.536-9.9251-9.391-9.9251s-9.392 4.5188-9.392 9.9251c0 5.4064 4.537 9.9251 9.392 9.9251s9.391-4.5187 9.391-9.9251zm-14.803 0c0-5.5677 1.751-9.5216 5.412-9.5216 3.701 0 5.412 3.9539 5.412 9.5216s-1.711 9.5216-5.412 9.5216c-3.661 0-5.412-3.9539-5.412-9.5216z"/><path d="m163.175 0h-.16c-.955 1.37176-4.098 2.94525-6.884 3.3487v.16139c2.746.36311 3.303.92795 3.303 1.4121v25.33721c0 .4438-.438.7262-2.985 1.049v.3227c1.115-.0807 3.383-.1614 4.776-.1614 1.432 0 3.701.0807 4.775.1614v-.3227c-2.507-.3228-2.985-.6052-2.985-1.049v-23.36026c0-3.06629.04-5.20462.16-6.89914z"/></g></svg>