<svg width="617" height="617" viewBox="0 0 617 617" fill="none" xmlns="http://www.w3.org/2000/svg">
<rect width="617" height="617" fill="black"/>
<path d="M426.31 453.598L468 376.933L465.658 374.111C423.031 440.899 358.856 463.945 251.586 464.886V310.146H266.576C323.255 310.146 339.182 331.781 348.551 375.522H352.298C348.551 356.239 345.272 331.781 345.272 307.795C345.272 283.337 348.551 259.35 352.298 240.067H348.551C339.182 283.808 323.255 305.443 266.576 305.443H251.586V152.585C342.461 152.585 404.762 171.398 442.705 236.774L445.047 234.423L410.383 165.284L416.473 146C416.473 146 317.166 147.881 230.038 147.881C204.275 147.881 162.116 146.941 149 146.47V150.703C203.806 153.055 206.148 163.402 206.148 171.868V445.602C206.148 454.068 203.806 464.415 149 466.767V471C162.116 470.53 204.275 469.589 230.038 469.589C321.85 469.589 431.463 471 431.463 471L426.31 453.598Z" fill="white"/>
</svg>
